<?xml version="1.0" encoding="UTF-8"?>
<svg version="1.1" viewBox="0 0 1024 1024" width="1024" height="1024" xmlns="http://www.w3.org/2000/svg">
<path transform="translate(511,269)" d="m0 0 9 1 8 5 4 6 2 6v35h37l7 3 5 4 4 7 1 4v7l-4 10-5 5 124 31 46 11 1 5-9 11-13 15-9 11-9 10-9 11-3 3 1 4 11 13 9 12 11 14 8 10 10 13 5 6v5l-16 5-21 7-22 7v122l-12 5-38 13-36 13-26 9-19 7-29 10-20 7-7-1-22-8-29-10-91-32-33-12-2-1v-123l-12-3-31-10-16-5v-5l11-13 8-11 13-16 6-8 10-13 7-9-3-5-13-15-9-10-11-14-9-10-7-9v-4l64-16 39-10 64-16h4l-7-9-2-7v-7l3-8 5-5 6-4 3-1h37v-36l4-8 5-5 6-3zm-42 97 2 4 12 14 5 6h2v-24zm65 0v24h2l9-11 10-11v-2z" fill="#39414D"/>
<path transform="translate(508,535)" d="m0 0h2v211l-11-3-43-15-108-38-13-5v-118l7 1 31 10 63 20 20 6 10-12 14-19 12-16 14-19z" fill="#F5D1A4"/>
<path transform="translate(514,535)" d="m0 0 5 5 12 15 8 11 14 19 13 17v2l9-2 60-19 38-12 13-4h3v117l-5 3-97 34-28 10-43 15h-2z" fill="#E8BD8B"/>
<path transform="translate(331,474)" d="m0 0 10 2 42 13 73 22 52 16-2 4-10 14-16 21-13 18-10 13-4 3-24-8-57-18-91-29-3-1 2-5 14-17 12-16 14-18z" fill="#F5D1A4"/>
<path transform="translate(690,474)" d="m0 0 4 1 10 13 11 14 14 18 10 13 7 9v2l-49 16-42 13-47 15-35 11-5-1-9-11-13-18-16-21-14-19v-2l62-19 102-31z" fill="#E8BD8B"/>
<path transform="translate(563,365)" d="m0 0h10l18 5 152 38-2 4-9 11-9 10-9 11-13 15-7 8-3 2-42-11-88-24-43-12-2-2 4-6 6-4 6-8 7-9 9-10 9-11z" fill="#F5D1A3"/>
<path transform="translate(451,365)" d="m0 0h10l8 9 9 11 12 14 7 11 8 5 3 6-16 5-92 25-67 18-4-2-9-11-24-28-9-11-6-8 9-3 143-36z" fill="#E8BD8B"/>
<path transform="translate(508,425)" d="m0 0 2 1v97l-9-2-145-44-13-4-1-2 24-7 67-18 72-20z" fill="#D7A977"/>
<path transform="translate(514,425)" d="m0 0 16 4 43 12 81 22 29 8-2 2-49 15-96 29-19 6h-3z" fill="#D7A977"/>
<path transform="translate(506,275)" d="m0 0h12l6 4 4 5 1 3 1 39 40 1 6 3 5 6 2 9-3 9-7 6-2 1-41 1-1 37-3 6-6 5-2 1h-12l-6-4-4-5-1-3-1-36-1-1-39-1-6-3-5-6-2-5 1-9 4-6 5-4 3-1 40-1 1-39 5-8z" fill="#C0A9E9"/>
<path transform="translate(508,535)" d="m0 0h2v211l-2-1v-183l-15 27-13 25-9 16-9-2-48-15-56-18-21-7-1 79h-1v-100l7 1 31 10 63 20 20 6 10-12 14-19 12-16 14-19z" fill="#E7BC8A"/>
<path transform="translate(511,269)" d="m0 0 9 1 8 5 4 6 2 6v35h37l7 3 5 4 4 7 1 4v7l-4 10-7 7-2 1-12 1-24 28-12 16-5 4h-2v2l-9 2-2-2-9-3-5-4-6-10-9-10-9-11-10-12h-11l-1-2-4-1-7-9-2-7v-7l3-8 5-5 6-4 3-1h37v-36l4-8 5-5 6-3zm-5 6-6 4-5 8-1 39-40 1-6 3-5 6-2 6 1 8 4 6 5 4 3 1 39 1 1 1 1 36 3 6 6 5 2 1h12l6-4 4-5 1-3 1-37 41-1 6-4 4-5 2-10-3-8-7-6-3-1-40-1-1-39-4-7-5-4-2-1zm-37 91 2 4 12 14 5 6h2v-24zm65 0v24h2l9-11 10-11v-2z" fill="#765483"/>
<path transform="translate(462,366)" d="m0 0h6l11 12 6 7v2l3 1 2 6-1 2-4-1-9-11-11-13z" fill="#464A55"/>
<path transform="translate(508,536)" d="m0 0h1v13l-2-4-4-1 2-5z" fill="#F2CD9F"/>
</svg>
