<?xml version="1.0" encoding="utf-8" ?><svg xmlns="http://www.w3.org/2000/svg" xmlns:xlink="http://www.w3.org/1999/xlink" width="540" height="540" viewBox="97 370 540 540"><path fill="#5B7BD5" transform="scale(0.947917 0.947917)" d="M383.826 471.892C414.883 429.656 468.898 439.666 491.313 484.336C524.376 484.933 549.598 507.186 552.25 540.997C552.763 547.539 551.948 553.216 551.139 559.729C580.899 574.473 592.086 601.391 582.088 632.876C607.408 657.492 611.638 691.628 586.429 718.264C598.514 738.243 603.778 757.958 588.221 779.147C583.441 785.657 577.276 789.877 570.306 793.8C570.79 806.812 570.651 816.016 566.015 828.379C556.427 853.943 533.86 867.514 507.259 868.392C496.297 901.583 469.971 922.575 434.534 922.767C411.102 922.315 396.817 913.184 384.076 894.205C357.283 937.063 298.489 928.838 271.011 890.916C266.08 884.112 263.396 876.83 260.694 868.934C217.397 865.959 195.086 836.65 197.618 794.253C195.536 793.192 193.206 791.825 191.215 790.578C181.195 784.422 174.066 774.503 171.426 763.045C167.872 746.972 172.696 732.069 181.357 718.626C171.256 709.064 165.219 695.985 164.495 682.096C163.478 661.507 172.254 647.282 185.469 632.692C181.064 620.081 180.923 606.373 185.069 593.674C190.677 576.735 201.546 567.352 216.93 559.684C215.895 554.964 215.38 551.077 215.337 546.233C215.126 529.491 221.673 513.371 233.5 501.516C245.966 488.93 259.09 484.887 276.398 484.823C287.178 460.144 306.439 447.556 332.892 445.211C355.211 444.293 371.456 453.911 383.826 471.892ZM311.191 514.363C313.395 515.915 321.927 518.818 325.278 521.044C331.356 525.08 332.459 529.154 337.472 533.713C340.986 536.622 346.151 538.117 349.144 541.627C357.079 551.056 355.778 563.637 346.092 571.473C331.113 583.589 309.726 572.405 311.508 553.15C312.223 545.422 318.467 540.055 324.222 535.496C307.201 521.667 300.674 523.32 284.154 535.964C277.696 540.907 269.915 538.136 272.633 530.587C275.473 522.697 291.133 517.114 298.727 513.912C288.496 494.608 272.012 491.046 252.919 501.491C241.253 507.917 232.655 518.757 229.056 531.579C226.612 540.175 226.993 547.233 227.813 555.98C237.171 555.414 243.675 555.087 252.941 556.948C270.57 545.344 284.925 547.427 287.168 570.729L287.203 571.12C301.352 579.725 312.057 588.468 315.794 605.744C317.454 613.419 319.042 624.497 307.254 619.618C304.222 616.383 303.155 605.007 301.059 600.541C297.066 592.036 288.736 585.473 280.82 580.896C266.03 591.347 254.356 585.741 249.808 568.622C237.948 565.973 225.907 566.952 215.401 573.508C205.147 579.907 197.852 590.113 195.118 601.885C192.384 613.797 194.493 623.611 199.287 634.443C204.896 643.805 209.385 647.487 218.961 652.774C222.962 654.982 227.352 658.838 223.125 663.191C212.264 666.83 195.982 652.626 190.953 643.677C181.26 655.632 175.065 667.599 176.639 683.762C177.698 694.893 183.191 705.13 191.88 712.168C202.77 720.914 214.355 721.45 227.407 719.929C227.948 719.866 228.489 719.797 229.029 719.72C229.158 723.833 229.22 727.27 229.789 731.364C214.408 732.906 204.754 732.689 190.696 725.285C178.522 745.852 177.61 766.048 199.164 782.143C210.998 790.98 228.473 774.766 232.815 785.902C232.292 795.957 216.231 796.643 208.699 796.626C208.67 814.314 211.46 829.426 224.444 842.438C232.628 850.64 245.957 857.729 257.633 856.7C268.685 855.725 272.357 858.133 282.57 860.622C292.654 863.137 303.321 860.218 310.718 852.919C327.617 836.245 311.804 817.39 316.07 810.641C320.222 807.956 325.224 808.221 327.035 813.129C340.425 849.418 311.877 883.429 273.694 870.657C280.296 886.955 293.117 899.953 309.325 906.779C339.409 919.219 376.739 906.359 378.014 869.619C378.753 848.305 376.645 827.185 378.259 805.922C378.611 801.283 379.185 792.449 385.61 793.335C391.505 797.548 389.531 809.833 389.932 816.361C391.41 840.408 384.935 867.481 394.504 890.081C395.992 893.411 402.87 899.595 405.808 901.746C416.453 909.54 431.011 912.971 443.997 910.919C461.041 908.28 476.313 898.915 486.392 884.923C489.34 880.819 492.508 875.178 494.528 870.519C470.486 877.616 446.092 869.252 438.753 843.632C436.88 837.292 436.689 830.573 438.199 824.137C433.303 822.661 429.203 820.69 425.434 817.119C421.516 813.468 419.278 808.363 419.249 803.009C418.95 776.013 461.244 772.318 461.514 802.552C461.572 808.976 456.709 814.085 452.394 818.159C450.176 822.773 449.08 826.632 449.026 831.824C448.891 839.734 451.986 847.358 457.598 852.935C470.795 865.984 484.344 861.663 498.38 856.796C503.723 854.943 513.692 857.763 522.001 855.022C550.976 845.462 558.985 824.354 558.68 796.776C552.451 796.665 537.539 795.128 535.548 790.225C529.922 776.372 548.17 782.463 552.773 784.776C556.777 786.788 566.448 782.826 569.507 781.034C577.031 776.597 582.414 769.278 584.406 760.775C587.439 748.279 583.641 736.124 577.088 725.514C565.883 731.756 550.682 733.675 538.209 730.854C517.947 762.312 487.146 724.082 511.925 708.305C515.63 705.95 520.137 705.213 524.4 706.265C531.953 708.115 535.653 713.559 539.325 719.681C553.852 721.697 567.065 720.255 578.354 709.788C586.457 702.269 591.193 691.806 591.495 680.757C591.922 667.077 585.832 653.297 576.499 643.469C572.691 652.104 550.261 671.729 543.989 660.019C542.841 652.944 556.225 648.994 561 644.561C565.164 640.694 565.689 640.266 568.619 635.164C572.604 626.122 575.059 616.187 573.675 606.286C571.969 594.135 565.472 583.171 555.633 575.838C543.719 567.002 532.312 566.433 518.432 568.496C513.211 585.349 502.83 592.174 487.054 581.395C474.413 588.074 467.768 595.135 464.06 609.141C463.251 612.197 461.937 617.158 460.282 619.751C449.701 627.091 451.011 611.117 452.408 605.474C456.775 587.838 466.127 580.208 480.85 571.167C482.56 551.184 498.911 541.258 514.124 557.318C523.763 555.355 530.464 554.871 540.161 556.595C541.068 546.747 541.419 539.31 538.18 529.67C533.917 516.936 524.745 506.431 512.701 500.487C493.773 491.197 478.049 495.641 468.858 514.638C478.146 516.967 496.529 523.657 494.63 535.471C488.647 543.263 471.841 524.577 460.818 525.799C447.011 527.33 441.668 544.128 432.346 546.077C422.709 543.947 433.001 528.675 437.116 525.128C443.292 519.803 451.374 518.663 457.104 514.257C460.058 500.275 467.162 493.22 479.706 487.335C473.663 475.206 463.399 465.699 450.841 460.6C426.601 450.952 403.533 460.202 392.45 481.825C384.943 496.472 396.104 565.809 384.685 570.448C379.645 570.146 378.249 564.092 378.15 559.829C378.002 539.442 377.955 519.146 378.188 498.732C378.547 467.248 349.676 450.472 320.792 459.012C305.655 463.487 295.423 473.252 287.885 487.114C288.485 487.398 289.081 487.689 289.673 487.989C302.66 494.56 306.773 500.989 311.191 514.363ZM335.071 564.072C339.976 562.848 343.013 557.94 341.918 553.006C340.822 548.072 335.994 544.909 331.031 545.875C327.705 546.523 324.991 548.924 323.945 552.147C322.898 555.371 323.683 558.907 325.995 561.385C328.308 563.863 331.782 564.892 335.071 564.072ZM270.48 573.971C273.716 573.013 275.588 569.64 274.687 566.388C273.787 563.137 270.447 561.206 267.179 562.048C265.013 562.606 263.316 564.289 262.742 566.451C262.168 568.613 262.806 570.916 264.41 572.475C266.014 574.034 268.335 574.606 270.48 573.971ZM501.133 573.998C504.223 573.043 506.046 569.859 505.305 566.712C504.564 563.564 501.512 561.528 498.321 562.051C496.052 562.423 494.18 564.028 493.466 566.213C492.753 568.398 493.318 570.799 494.932 572.437C496.545 574.074 498.937 574.677 501.133 573.998ZM523.509 729.913C526.567 728.541 527.918 724.94 526.519 721.896C525.119 718.852 521.505 717.533 518.473 718.96C515.48 720.369 514.181 723.926 515.563 726.932C516.945 729.937 520.491 731.267 523.509 729.913ZM447.427 808.706C453.417 802.795 447.138 791.908 440.993 792.96C429.702 794.892 427.187 809.636 441.393 811.888C443.367 810.181 445.015 809.678 447.427 808.706Z"/><path fill="#5B7BD5" transform="scale(0.947917 0.947917)" d="M415.017 551.024C417.509 551.083 419.339 551.358 421.264 552.946C422.212 554.439 422.714 555.767 422.324 557.537C415.216 589.793 405.565 622.132 398.568 654.384C409.434 654.311 451.281 653.033 458.362 656.861C460.358 659.982 459.563 661.942 457.6 664.92C450.921 675.052 443.793 684.922 436.809 694.85L400.066 747.226L373.432 785.337C367.946 793.266 360.548 804.567 354.425 811.721C348.755 811.678 345.777 809.865 346.971 803.799C349.211 792.41 352.455 781.02 355.394 769.785L371.931 706.688C362.622 706.747 319.629 707.606 312.934 704.681C310.29 701.571 310.886 698.387 313.161 695.189C319.4 686.417 325.692 677.694 331.893 668.893L371.069 612.849L398.111 574.006C402.623 567.528 409.881 556.529 415.017 551.024ZM328.371 695.001C336.586 694.938 377.986 693.784 382.95 696.446C389.651 704.921 364.418 768.68 367.686 773.063L414.582 706.126C422.748 694.518 435.342 678.037 442.25 666.247C432.616 666.271 393.257 667.033 387.239 664.926C380.472 657.575 401.875 601.855 402.081 589.32C396.1 597.366 390.301 605.676 384.63 613.949C366.055 641.047 346.629 667.7 328.371 695.001Z"/><path fill="#5B7BD5" transform="scale(0.947917 0.947917)" d="M402.081 589.32C401.875 601.855 380.472 657.575 387.239 664.926C393.257 667.033 432.616 666.271 442.25 666.247C435.342 678.037 422.748 694.518 414.582 706.126L367.686 773.063C364.418 768.68 389.651 704.921 382.95 696.446C377.986 693.784 336.586 694.938 328.371 695.001C346.629 667.7 366.055 641.047 384.63 613.949C390.301 605.676 396.1 597.366 402.081 589.32Z"/><path fill="#5B7BD5" transform="scale(0.947917 0.947917)" d="M516.874 603.626C530.815 604.999 528.62 622.895 525.908 632.544C524.923 636.049 522.899 639.454 521.089 642.616C522.493 644.066 523.847 645.562 525.15 647.104C544.816 670.241 522.171 696.599 498.048 701.533C486.334 703.93 475.537 703.234 464.596 708.603C455.705 712.967 453.597 731.676 443.198 730.091C437.548 726.219 442.17 718.355 444.447 713.351C445.002 712.428 445.595 711.529 446.226 710.655C467.344 681.366 496.482 702.693 517.727 675.795C523.51 668.474 520.406 656.31 513.103 651.216C506.213 645.669 491.877 655.588 486.3 650.946C472.379 639.359 507.796 636.889 511.261 636.406C521.006 620.483 508.665 611.331 516.874 603.626Z"/><path fill="#5B7BD5" transform="scale(0.947917 0.947917)" d="M246.34 603.703C255.864 603.426 253.748 610.764 253.161 617.641C252.419 626.339 252.679 629.805 257.54 636.947C264.2 637.466 285.723 638.823 285.21 648.175C280.799 654.7 264.746 650.091 258.377 648.443C257.412 649.173 256.467 649.929 255.544 650.712C241.037 663.12 247.376 677.638 262.099 686.022C269.318 690.133 277.176 691.726 285.38 692.314C290.02 692.622 303.776 693.963 299.205 701.895C283.792 713.19 206.051 687.523 246.863 642.781C239.399 631.186 236.155 614.7 246.34 603.703Z"/><path fill="#5B7BD5" transform="scale(0.947917 0.947917)" d="M489.748 788.91C475.491 785.644 463.307 778.576 455.424 765.948C454.085 763.82 453.655 761.244 454.229 758.797C454.635 757.107 455.118 756.431 456.414 755.346C463.751 753.493 468.585 762.82 472.966 767.467C480.839 775.819 491.928 779.295 503.135 776.844C514.82 774.63 521.039 761.577 530.636 763.559C531.9 764.779 532.453 765.215 532.462 767.202C532.517 779.1 510.612 788.131 501.134 788.907L489.748 788.91Z"/><path fill="#5B7BD5" transform="scale(0.947917 0.947917)" d="M266.577 789.001C265.591 788.939 264.61 788.8 263.645 788.586C254.026 786.552 241.683 780.464 236.365 772.088C231.175 763.37 240.492 760.228 246.587 766.056C260.53 779.389 280.529 782.393 294.991 767.972C299.001 763.973 304.514 753.218 311.466 755.682C315.467 759.051 313.513 763.809 311.154 767.462C303.16 779.841 292.254 785.681 278.349 788.802L266.577 789.001Z"/><path fill="#5B7BD5" transform="scale(0.947917 0.947917)" d="M266.577 789.001L278.349 788.802C278.38 791.027 278.369 797.666 278.995 799.469C280.842 804.782 289.792 811.749 286.222 817.546C279.118 822.072 274.32 815.421 271.201 810.006C262.954 814.659 248.96 822.614 240.825 813.226C239.436 804.957 259.662 805.333 263.395 800.258C265.435 797.486 266.038 792.211 266.577 789.001Z"/><path fill="#5B7BD5" transform="scale(0.947917 0.947917)" d="M489.748 788.91L501.134 788.907C502.547 798.762 503.937 802.985 514.36 804.77C517.72 805.345 524.888 807.049 526.565 810.203C526.747 813.819 523.814 817.312 520.16 817.587C511.251 818.255 504.371 814.876 497.437 809.654C494.271 814.132 487.435 822.846 481.26 817.321C479.454 811.204 486.683 805.004 488.664 800.043C489.708 797.426 489.702 791.902 489.748 788.91Z"/><path fill="#5B7BD5" transform="scale(0.947917 0.947917)" d="M298.727 513.912C301.85 514.705 307.987 514.773 311.191 514.363C313.395 515.915 321.927 518.818 325.278 521.044C331.356 525.08 332.459 529.154 337.472 533.713C340.986 536.622 346.151 538.117 349.144 541.627C357.079 551.056 355.778 563.637 346.092 571.473C331.113 583.589 309.726 572.405 311.508 553.15C312.223 545.422 318.467 540.055 324.222 535.496C307.201 521.667 300.674 523.32 284.154 535.964C277.696 540.907 269.915 538.136 272.633 530.587C275.473 522.697 291.133 517.114 298.727 513.912ZM335.071 564.072C339.976 562.848 343.013 557.94 341.918 553.006C340.822 548.072 335.994 544.909 331.031 545.875C327.705 546.523 324.991 548.924 323.945 552.147C322.898 555.371 323.683 558.907 325.995 561.385C328.308 563.863 331.782 564.892 335.071 564.072Z"/><path fill="#5B7BD5" transform="scale(0.947917 0.947917)" d="M252.941 556.948C270.57 545.344 284.925 547.427 287.168 570.729L287.203 571.12C301.352 579.725 312.057 588.468 315.794 605.744C317.454 613.419 319.042 624.497 307.254 619.618C304.222 616.383 303.155 605.007 301.059 600.541C297.066 592.036 288.736 585.473 280.82 580.896C266.03 591.347 254.356 585.741 249.808 568.622C250.093 564.534 251.774 560.996 252.941 556.948ZM270.48 573.971C273.716 573.013 275.588 569.64 274.687 566.388C273.787 563.137 270.447 561.206 267.179 562.048C265.013 562.606 263.316 564.289 262.742 566.451C262.168 568.613 262.806 570.916 264.41 572.475C266.014 574.034 268.335 574.606 270.48 573.971Z"/><path fill="#5B7BD5" transform="scale(0.947917 0.947917)" d="M480.85 571.167C482.56 551.184 498.911 541.258 514.124 557.318C515.064 559.822 517.375 566.407 518.432 568.496C513.211 585.349 502.83 592.174 487.054 581.395C474.413 588.074 467.768 595.135 464.06 609.141C463.251 612.197 461.937 617.158 460.282 619.751C449.701 627.091 451.011 611.117 452.408 605.474C456.775 587.838 466.127 580.208 480.85 571.167ZM501.133 573.998C504.223 573.043 506.046 569.859 505.305 566.712C504.564 563.564 501.512 561.528 498.321 562.051C496.052 562.423 494.18 564.028 493.466 566.213C492.753 568.398 493.318 570.799 494.932 572.437C496.545 574.074 498.937 574.677 501.133 573.998Z"/><path fill="#5B7BD5" transform="scale(0.947917 0.947917)" d="M538.209 730.854C517.947 762.312 487.146 724.082 511.925 708.305C515.63 705.95 520.137 705.213 524.4 706.265C531.953 708.115 535.653 713.559 539.325 719.681C538.579 722.58 538.414 727.711 538.209 730.854ZM523.509 729.913C526.567 728.541 527.918 724.94 526.519 721.896C525.119 718.852 521.505 717.533 518.473 718.96C515.48 720.369 514.181 723.926 515.563 726.932C516.945 729.937 520.491 731.267 523.509 729.913Z"/><path fill="#5B7BD5" transform="scale(0.947917 0.947917)" d="M229.029 719.72C232.819 714.056 237.053 706.877 244.358 706.011C267.739 703.237 273.736 738.392 249.487 742.333C240.444 743.803 234.843 738.28 229.789 731.364C229.22 727.27 229.158 723.833 229.029 719.72ZM249.714 729.595C251.62 728.645 252.868 726.745 252.983 724.62C253.099 722.494 252.064 720.47 250.273 719.32C248.482 718.169 246.211 718.068 244.325 719.056C241.449 720.562 240.324 724.103 241.801 726.993C243.279 729.882 246.809 731.043 249.714 729.595Z"/><path fill="#5B7BD5" transform="scale(0.947917 0.947917)" d="M438.199 824.137C433.303 822.661 429.203 820.69 425.434 817.119C421.516 813.468 419.278 808.363 419.249 803.009C418.95 776.013 461.244 772.318 461.514 802.552C461.572 808.976 456.709 814.085 452.394 818.159C452.919 812.15 452.177 811.794 447.427 808.706C453.417 802.795 447.138 791.908 440.993 792.96C429.702 794.892 427.187 809.636 441.393 811.888C440.413 815.993 439.348 820.077 438.199 824.137Z"/><path fill="#5B7BD5" transform="scale(0.947917 0.947917)" d="M457.104 514.257C461.034 514.526 465.334 514.369 468.858 514.638C478.146 516.967 496.529 523.657 494.63 535.471C488.647 543.263 471.841 524.577 460.818 525.799C447.011 527.33 441.668 544.128 432.346 546.077C422.709 543.947 433.001 528.675 437.116 525.128C443.292 519.803 451.374 518.663 457.104 514.257Z"/><path fill="#5B7BD5" transform="scale(0.947917 0.947917)" d="M199.287 634.443C204.896 643.805 209.385 647.487 218.961 652.774C222.962 654.982 227.352 658.838 223.125 663.191C212.264 666.83 195.982 652.626 190.953 643.677C193.974 640.533 196.576 637.879 199.287 634.443Z"/><path fill="#5B7BD5" transform="scale(0.947917 0.947917)" d="M568.619 635.164C571.509 638.555 573.149 640.439 576.499 643.469C572.691 652.104 550.261 671.729 543.989 660.019C542.841 652.944 556.225 648.994 561 644.561C565.164 640.694 565.689 640.266 568.619 635.164Z"/></svg>